# xmcd CD database file
#
# Track frame offsets:
#	150
#	14084
#	28881
#	55004
#	72981
#	85979
#	99502
#	118764
#	136492
#	148465
#	159873
#	173304
#	184657
#
# Disc length: 2601 seconds
#
# Revision: 0
# Processed by: cddbd v1.5.2PL0 Copyright (c) Steve Scherf et al.
# Submitted via: CDex 1.70beta3
#
DISCID=b30a270d
DTITLE=Dee Felice Trio - In Heat
DYEAR=1969
DGENRE=Jazz
TTITLE0=Oh Happy Day
TTITLE1=Wichita Lineman
TTITLE2=The Crickets Sing
TTITLE3=Summer In The City
TTITLE4=There Was A Time
TTITLE5=In Heat
TTITLE6=Both Sides Now
TTITLE7=All The Time
TTITLE8=Uncle
TTITLE9=Never
TTITLE10=There Was A Time (Single Version)
TTITLE11=Nightingale
TTITLE12=Little Liza Jane
EXTD=YEAR: 1969
EXTT0=
EXTT1=
EXTT2=
EXTT3=
EXTT4=
EXTT5=
EXTT6=
EXTT7=
EXTT8=
EXTT9=
EXTT10=
EXTT11=
EXTT12=
PLAYORDER=
